<svg width="29" height="26" viewBox="0 0 29 26" fill="none" xmlns="http://www.w3.org/2000/svg">
<ellipse cx="16.8005" cy="18.2391" rx="11.0892" ry="5.67405" transform="rotate(-8.42011 16.8005 18.2391)" fill="#C89914"/>
<path d="M5.8031 19.5635V17.5635L6.8031 17.0635L7.3031 18.0635L6.8031 19.5635H5.8031Z" fill="#C89914"/>
<path d="M27.8031 15.0635V17.0635L26.8031 17.5635V16.0635V15.0635H27.8031Z" fill="#C89914"/>
<ellipse cx="16.8115" cy="16.2381" rx="11.0958" ry="5.67405" transform="rotate(-8.42011 16.8115 16.2381)" fill="url(#paint0_linear_631_2793)"/>
<ellipse cx="11.8005" cy="15.2391" rx="11.0892" ry="5.67405" transform="rotate(-8.42011 11.8005 15.2391)" fill="#C89914"/>
<path d="M0.803101 16.5635V14.5635L1.8031 14.0635L2.3031 15.0635L1.8031 16.5635H0.803101Z" fill="#C89914"/>
<path d="M22.8031 12.0635V14.0635L21.8031 14.5635V13.0635V12.0635H22.8031Z" fill="#C89914"/>
<ellipse cx="11.8115" cy="13.2381" rx="11.0958" ry="5.67405" transform="rotate(-8.42011 11.8115 13.2381)" fill="url(#paint1_linear_631_2793)"/>
<ellipse cx="13.8005" cy="9.2391" rx="11.0892" ry="5.67405" transform="rotate(-8.42011 13.8005 9.2391)" fill="#C89914"/>
<path d="M2.8031 10.5635V8.56348L3.8031 8.06348L4.3031 9.06348L3.8031 10.5635H2.8031Z" fill="#C89914"/>
<path d="M24.8031 6.06348V8.06348L23.8031 8.56348V7.06348V6.06348H24.8031Z" fill="#C89914"/>
<ellipse cx="13.8115" cy="7.23812" rx="11.0958" ry="5.67405" transform="rotate(-8.42011 13.8115 7.23812)" fill="url(#paint2_linear_631_2793)"/>
<defs>
<linearGradient id="paint0_linear_631_2793" x1="10.0903" y1="18.5411" x2="15.6752" y2="10.8688" gradientUnits="userSpaceOnUse">
<stop stop-color="#EBBC38"/>
<stop offset="1" stop-color="#B98E13"/>
</linearGradient>
<linearGradient id="paint1_linear_631_2793" x1="5.09031" y1="15.5411" x2="10.6752" y2="7.8688" gradientUnits="userSpaceOnUse">
<stop stop-color="#EBBC38"/>
<stop offset="1" stop-color="#B98E13"/>
</linearGradient>
<linearGradient id="paint2_linear_631_2793" x1="11.6927" y1="4.54295" x2="21.2302" y2="5.5675" gradientUnits="userSpaceOnUse">
<stop stop-color="#EBBC38"/>
<stop offset="1" stop-color="#DEAA16"/>
</linearGradient>
</defs>
</svg>
