<svg width="298" height="268" viewBox="0 0 298 268" fill="none" xmlns="http://www.w3.org/2000/svg">
<path d="M178.41 155.29C172.202 155.242 166.021 154.474 159.99 153C158.648 152.682 157.488 151.843 156.764 150.669C156.04 149.495 155.812 148.082 156.13 146.74C156.449 145.398 157.287 144.237 158.461 143.514C159.635 142.79 161.048 142.562 162.39 142.88C191.04 149.67 214.02 138.88 227.08 112.41C230.65 105.19 233.61 97.74 236.26 90.76L237.02 88.76C242.25 75.02 247.66 60.81 256.41 48.54C260.61 42.63 265.67 35.94 272.41 31.38L272.59 31.26C275.713 29.3459 278.957 27.6357 282.3 26.14C282.65 25.97 283.15 25.75 283.75 25.5C284.35 25.25 285.57 24.72 286.6 24.21H286.51L286.08 24.04C255.68 13.93 211.51 2.57001 177.22 19.21C143.22 35.68 128.14 69.89 136.8 110.72C136.961 111.395 136.985 112.095 136.871 112.779C136.757 113.463 136.508 114.118 136.137 114.704C135.766 115.29 135.282 115.797 134.713 116.193C134.144 116.589 133.501 116.868 132.822 117.012C132.144 117.156 131.443 117.163 130.762 117.032C130.081 116.901 129.433 116.636 128.856 116.251C128.279 115.866 127.784 115.369 127.402 114.79C127.02 114.211 126.758 113.562 126.63 112.88C122.12 91.63 123.56 71.08 130.79 53.47C138.6 34.47 153.09 19.35 172.68 9.85C210.53 -8.52 257.68 3.59 289.77 14.3L290.26 14.49C290.513 14.5663 290.76 14.6598 291 14.77C293.495 15.78 295.523 17.685 296.686 20.1118C297.85 22.5387 298.065 25.3126 297.29 27.89C297.271 27.9614 297.248 28.0316 297.22 28.1C296.09 31.34 292.62 33.04 287.85 35.1L286.74 35.59L286.59 35.66C283.68 36.9582 280.857 38.4446 278.14 40.11C272.87 43.7 268.69 49.24 264.87 54.62C256.87 65.81 251.73 79.38 246.73 92.51L245.97 94.51C243.35 101.38 240.17 109.44 236.39 117.07C224.06 142 203.48 155.29 178.41 155.29Z" fill="white"/>
<path d="M96.1303 267.63H95.6203C94.9412 267.565 94.2815 267.366 93.6791 267.046C93.0767 266.726 92.5434 266.29 92.1097 265.763C91.6759 265.237 91.3503 264.63 91.1513 263.977C90.9524 263.324 90.8841 262.639 90.9503 261.96C91.0803 260.57 94.4303 227.54 111.84 184.4C127.92 144.56 159.56 88.4499 218.98 47.3999C220.115 46.6722 221.488 46.4136 222.81 46.6786C224.131 46.9436 225.298 47.7115 226.065 48.8204C226.831 49.9293 227.137 51.2924 226.918 52.6225C226.699 53.9525 225.972 55.1455 224.89 55.9499C167.71 95.4899 137.17 149.59 121.62 188C104.69 229.81 101.33 262.67 101.3 263C101.16 264.273 100.555 265.449 99.6007 266.304C98.6467 267.158 97.411 267.63 96.1303 267.63Z" fill="white"/>
<path d="M96.1301 267.63H95.8701C95.1878 267.596 94.5188 267.429 93.9012 267.137C93.2837 266.845 92.7297 266.434 92.271 265.928C91.8122 265.422 91.4577 264.831 91.2276 264.187C90.9975 263.544 90.8964 262.862 90.9301 262.18C93.8501 201.84 69.5701 148.5 48.6801 114.38C25.9101 77.1798 2.10007 54.0698 1.86007 53.8398C0.908888 52.8744 0.372216 51.5757 0.364346 50.2205C0.356475 48.8652 0.87802 47.5604 1.81793 46.584C2.75784 45.6076 4.04184 45.0367 5.39642 44.9929C6.751 44.9492 8.06911 45.4361 9.07006 46.3498C10.0701 47.3498 33.9301 70.4298 57.4001 108.7C79.1201 144.12 104.4 199.58 101.32 262.7C101.249 264.029 100.671 265.28 99.7058 266.197C98.7407 267.114 97.4612 267.627 96.1301 267.63Z" fill="white"/>
</svg>
