<svg width="18" height="20" viewBox="0 0 18 20" fill="none" xmlns="http://www.w3.org/2000/svg">
<path d="M5 7.43907C5.42818 5.40521 6.73414 1.27324 8.53251 1.01633C10.7805 0.695191 12.7073 5.19111 13.0284 7.43907" stroke="#3C3A38" stroke-width="1.5"/>
<path d="M3.67349 7.11768C2.75575 7.11768 1.95319 7.74094 1.76152 8.63844C1.26137 10.9804 0.736189 14.2303 1.14852 15.4672C1.42275 16.29 1.70919 17.0883 1.94923 17.7352C2.2337 18.502 2.96932 18.9998 3.78713 18.9998H13.776C14.5938 18.9998 15.3294 18.502 15.6139 17.7352C15.8539 17.0883 16.1404 16.29 16.4146 15.4672C16.8269 14.2303 16.3017 10.9804 15.8016 8.63843C15.6099 7.74094 14.8074 7.11768 13.8896 7.11768H3.67349Z" stroke="#3C3A38" stroke-width="1.5"/>
</svg>
