<svg width="19" height="22" viewBox="0 0 19 22" fill="none" xmlns="http://www.w3.org/2000/svg">
<path fill-rule="evenodd" clip-rule="evenodd" d="M14.4259 0C14.8146 0 15.1296 0.307804 15.1296 0.6875V4.46875C15.1296 4.84845 14.8146 5.15625 14.4259 5.15625C14.0373 5.15625 13.7222 4.84845 13.7222 4.46875V0.6875C13.7222 0.307804 14.0373 0 14.4259 0ZM4.57407 0.34375C4.96272 0.34375 5.27778 0.651554 5.27778 1.03125V12.375C5.27778 12.7547 4.96272 13.0625 4.57407 13.0625C4.18543 13.0625 3.87037 12.7547 3.87037 12.375V1.03125C3.87037 0.651554 4.18543 0.34375 4.57407 0.34375ZM14.4259 10.3125C14.8146 10.3125 15.1296 10.6203 15.1296 11V21.3125C15.1296 21.6922 14.8146 22 14.4259 22C14.0373 22 13.7222 21.6922 13.7222 21.3125V11C13.7222 10.6203 14.0373 10.3125 14.4259 10.3125ZM4.57407 18.2188C4.96272 18.2188 5.27778 18.5266 5.27778 18.9062V21.3125C5.27778 21.6922 4.96272 22 4.57407 22C4.18543 22 3.87037 21.6922 3.87037 21.3125V18.9062C3.87037 18.5266 4.18543 18.2188 4.57407 18.2188Z" fill="#3C3A38"/>
<path fill-rule="evenodd" clip-rule="evenodd" d="M2.11111 12.0312H7.03704C8.20297 12.0312 9.14815 12.9547 9.14815 14.0938V15.4688C9.14815 16.6078 8.20297 17.5312 7.03704 17.5312H2.11111C0.945177 17.5312 0 16.6078 0 15.4688V14.0938C0 12.9547 0.945177 12.0312 2.11111 12.0312ZM2.11111 13.4062C1.72247 13.4062 1.40741 13.7141 1.40741 14.0938V15.4688C1.40741 15.8484 1.72247 16.1562 2.11111 16.1562H7.03704C7.42568 16.1562 7.74074 15.8484 7.74074 15.4688V14.0938C7.74074 13.7141 7.42568 13.4062 7.03704 13.4062H2.11111Z" fill="#3C3A38"/>
<path fill-rule="evenodd" clip-rule="evenodd" d="M11.963 4.46875H16.8889C18.0548 4.46875 19 5.39216 19 6.53125V7.90625C19 9.04534 18.0548 9.96875 16.8889 9.96875H11.963C10.797 9.96875 9.85185 9.04534 9.85185 7.90625V6.53125C9.85185 5.39216 10.797 4.46875 11.963 4.46875ZM11.963 5.84375C11.5743 5.84375 11.2593 6.15155 11.2593 6.53125V7.90625C11.2593 8.28595 11.5743 8.59375 11.963 8.59375H16.8889C17.2775 8.59375 17.5926 8.28595 17.5926 7.90625V6.53125C17.5926 6.15155 17.2775 5.84375 16.8889 5.84375H11.963Z" fill="#3C3A38"/>
</svg>
