<svg width="19" height="19" viewBox="0 0 19 19" fill="none" xmlns="http://www.w3.org/2000/svg">
<path d="M14.5499 8.6321C14.489 8.73225 14.3783 8.8007 14.2347 8.81226C14.2173 8.81367 14.1998 8.8142 14.1823 8.8139L11.1355 9.24125C10.8621 9.27961 10.5591 9.10212 10.4589 8.84481C10.3587 8.5875 10.4991 8.34781 10.7726 8.30946L13.4395 7.93538L12.6268 5.42429C12.5418 5.16156 12.696 4.93062 12.9712 4.90845C13.2465 4.88629 13.5385 5.08131 13.6236 5.34403L14.5536 8.21771C14.5619 8.23388 14.5693 8.25044 14.5759 8.26733C14.6287 8.40272 14.6148 8.53323 14.5499 8.6321Z" fill="#3C3A38"/>
<path fill-rule="evenodd" clip-rule="evenodd" d="M11.1463 7.35383C9.87972 6.08741 7.16618 6.19482 5.92866 8.25754C5.35205 9.21865 5.3517 10.1841 5.66003 11.0338C5.97377 11.8984 6.60796 12.638 7.27729 13.0842C7.50706 13.2374 7.56914 13.5479 7.41597 13.7776C7.26279 14.0074 6.95236 14.0695 6.72259 13.9163C5.89192 13.3625 5.11289 12.4576 4.72001 11.3749C4.32171 10.2773 4.32135 8.99285 5.07115 7.74308C6.63826 5.13099 10.1198 4.91329 11.8534 6.64668C12.0486 6.84193 12.0487 7.15851 11.8534 7.35379C11.6582 7.54906 11.3416 7.54908 11.1463 7.35383Z" fill="#3C3A38"/>
</svg>