<svg width="23" height="20" viewBox="0 0 23 20" fill="none" xmlns="http://www.w3.org/2000/svg">
<path d="M9.55376 18.2095L9.54533 18.206L9.53245 18.2007L9.50118 18.1878C9.47791 18.1781 9.44982 18.1663 9.41721 18.1524C9.35208 18.1246 9.26852 18.0883 9.16912 18.0436C8.97114 17.9546 8.70576 17.8303 8.39454 17.6723C7.78719 17.3639 6.93346 16.8908 6.04027 16.2559C5.18315 15.6466 4.06063 14.7285 3.09769 13.4573C2.13659 12.1885 1 10.1106 1 7.35303C1 3.84435 3.54638 1 6.6875 1C8.7138 1 10.4926 2.18364 11.5 3.96571C12.5074 2.18364 14.2862 1 16.3125 1C19.4536 1 22 3.84435 22 7.35303C22 10.1106 20.8634 12.1885 19.9023 13.4573C18.9394 14.7285 17.8168 15.6466 16.9597 16.2559C16.0665 16.8908 15.2128 17.3639 14.6055 17.6723C14.2942 17.8303 14.0289 17.9546 13.8309 18.0436C13.7315 18.0883 13.6479 18.1246 13.5828 18.1524C13.5502 18.1663 13.5221 18.1781 13.4988 18.1878L13.4675 18.2007L13.4547 18.206L13.4462 18.2095M9.55634 18.2105L11.5 19L13.4437 18.2105" stroke="#3C3A38" stroke-width="1.5" stroke-linecap="round"/>
</svg>
