<svg width="12" height="21" viewBox="0 0 12 21" fill="none" xmlns="http://www.w3.org/2000/svg">
<path fill-rule="evenodd" clip-rule="evenodd" d="M5.19875 0.0582784C3.24929 0.405056 1.7388 1.88544 1.36086 3.81967C1.29233 4.17039 1.2841 4.40366 1.2841 5.99244V7.77234L1.04376 7.85999C0.594436 8.0238 0.232522 8.39363 0.0799911 8.84484C0.00149742 9.07698 -0.000670913 9.1825 9.19416e-05 12.6993C0.000573744 14.8785 0.0167546 16.4267 0.0408447 16.5961C0.189963 17.6449 0.58223 18.446 1.3018 19.1712C1.74851 19.6214 2.19599 19.9352 2.78146 20.2088C4.52518 21.0236 7.02024 21.0809 8.89056 20.3489C10.3028 19.7962 11.3177 18.7821 11.7424 17.4995C11.9887 16.7554 11.9768 16.9739 11.9929 12.8884C12.0092 8.75105 12.0199 8.94766 11.7548 8.50769C11.588 8.23098 11.2746 7.97478 10.9648 7.86184L10.7243 7.77411L10.71 5.86143C10.71 5.86143 10.71 4.54443 10.71 4.23752C10.71 3.9048 10.5916 3.56733 10.5916 3.56733C10.0849 1.71171 8.63705 0.37667 6.78657 0.0588003C6.33142 -0.0194123 5.63678 -0.0196131 5.19875 0.0582784ZM6.44224 1.5617C7.8204 1.76089 8.93653 2.86422 9.14901 4.23752C9.17627 4.41366 9.19369 5.15346 9.19369 6.13461V7.74295H5.99914H2.80459L2.82032 5.94623C2.83791 3.94297 2.83594 3.95923 3.13153 3.34337C3.7341 2.08795 5.07825 1.36461 6.44224 1.5617ZM6.32918 11.6572C7.20586 11.9175 7.4517 13.0364 6.76481 13.6395L6.62139 13.7654L6.70301 14.6637C6.8105 15.8463 6.81013 15.8676 6.67888 15.9708C6.58304 16.0462 6.51901 16.0541 5.99858 16.0541C5.4539 16.0541 5.41837 16.0492 5.3147 15.96C5.18465 15.8481 5.18493 15.8727 5.29752 14.6265L5.37545 13.7635L5.20131 13.603C4.91139 13.3357 4.77725 12.9272 4.85558 12.55C4.94247 12.1315 5.22452 11.8131 5.63365 11.6717C5.88933 11.5833 6.06792 11.5796 6.32918 11.6572Z" fill="white"/>
</svg>
