<svg width="24" height="37" viewBox="0 0 24 37" fill="none" xmlns="http://www.w3.org/2000/svg">
<path fill-rule="evenodd" clip-rule="evenodd" d="M8.19048 14.1795C8.19048 13.6455 7.76408 13.2125 7.2381 13.2125H4.38095C2.27701 13.2125 0.571429 14.9442 0.571429 17.0804V32.5519C0.571429 34.6881 2.27701 36.4198 4.38095 36.4198H19.619C21.723 36.4198 23.4286 34.6881 23.4286 32.5519V17.0804C23.4286 14.9442 21.723 13.2125 19.619 13.2125H16.7619C16.2359 13.2125 15.8095 13.6455 15.8095 14.1795C15.8095 14.7136 16.2359 15.1465 16.7619 15.1465H19.619C20.671 15.1465 21.5238 16.0123 21.5238 17.0804V32.5519C21.5238 33.62 20.671 34.4859 19.619 34.4859H4.38095C3.32898 34.4859 2.47619 33.62 2.47619 32.5519V17.0804C2.47619 16.0123 3.32898 15.1465 4.38095 15.1465H7.2381C7.76408 15.1465 8.19048 14.7136 8.19048 14.1795Z" fill="#3C3A38"/>
<path fill-rule="evenodd" clip-rule="evenodd" d="M4.38095 12.6324H7.2381C8.07967 12.6324 8.76191 13.325 8.76191 14.1795C8.76191 15.034 8.07967 15.7267 7.2381 15.7267H4.38095C3.64457 15.7267 3.04762 16.3328 3.04762 17.0804V32.5519C3.04762 33.2996 3.64457 33.9057 4.38095 33.9057H19.619C20.3554 33.9057 20.9524 33.2996 20.9524 32.5519V17.0804C20.9524 16.3328 20.3554 15.7267 19.619 15.7267H16.7619C15.9203 15.7267 15.2381 15.034 15.2381 14.1795C15.2381 13.325 15.9203 12.6324 16.7619 12.6324H19.619C22.0386 12.6324 24 14.6238 24 17.0804V32.5519C24 35.0085 22.0386 37 19.619 37H4.38095C1.96142 37 0 35.0085 0 32.5519V17.0804C0 14.6238 1.96142 12.6324 4.38095 12.6324ZM7.2381 13.2125C7.76408 13.2125 8.19048 13.6455 8.19048 14.1795C8.19048 14.7136 7.76408 15.1465 7.2381 15.1465H4.38095C3.32898 15.1465 2.47619 16.0123 2.47619 17.0804V32.5519C2.47619 33.62 3.32898 34.4859 4.38095 34.4859H19.619C20.671 34.4859 21.5238 33.62 21.5238 32.5519V17.0804C21.5238 16.0123 20.671 15.1465 19.619 15.1465H16.7619C16.2359 15.1465 15.8095 14.7136 15.8095 14.1795C15.8095 13.6455 16.2359 13.2125 16.7619 13.2125H19.619C21.723 13.2125 23.4286 14.9442 23.4286 17.0804V32.5519C23.4286 34.6881 21.723 36.4198 19.619 36.4198H4.38095C2.27701 36.4198 0.571429 34.6881 0.571429 32.5519V17.0804C0.571429 14.9442 2.27701 13.2125 4.38095 13.2125H7.2381Z" fill="#3C3A38"/>
<path fill-rule="evenodd" clip-rule="evenodd" d="M12 0.158444C12.789 0.158444 13.4286 0.807835 13.4286 1.6089V14.663C13.4286 15.4641 12.789 16.1134 12 16.1134C11.211 16.1134 10.5714 15.4641 10.5714 14.663V1.6089C10.5714 0.807835 11.211 0.158444 12 0.158444Z" fill="#3C3A38"/>
<path fill-rule="evenodd" clip-rule="evenodd" d="M12.825 0.488648C12.3476 -0.149137 11.5544 -0.16461 11.0532 0.454087L5.42133 7.40677C4.92017 8.02546 4.90089 9.04404 5.37828 9.68183C5.85567 10.3196 6.64894 10.3351 7.1501 9.71639L12.782 2.76371C13.2831 2.14501 13.3024 1.12643 12.825 0.488648Z" fill="#3C3A38"/>
<path fill-rule="evenodd" clip-rule="evenodd" d="M10.9876 0.507861C10.5229 1.15523 10.5625 2.17297 11.0761 2.78106L16.9486 9.73374C17.4622 10.3418 18.2552 10.31 18.72 9.66262C19.1847 9.01525 19.145 7.99751 18.6314 7.38942L12.759 0.43674C12.2454 -0.171346 11.4523 -0.139504 10.9876 0.507861Z" fill="#3C3A38"/>
</svg>
