<svg width="13" height="21" viewBox="0 0 13 21" fill="none" xmlns="http://www.w3.org/2000/svg">
<path fill-rule="evenodd" clip-rule="evenodd" d="M6.57703 0.0350526C7.61562 0.16004 8.61334 0.677524 9.38323 1.49054C9.93042 2.0684 10.3629 2.85564 10.5824 3.67332L10.6942 4.08967L10.7498 7.85595L10.9873 7.9458C11.4459 8.11925 11.8118 8.51716 11.9566 9C12.0264 9.2327 12 9.03936 12 12.5456C12 15.0001 11.9852 16.3728 11.9566 16.57C11.7937 17.6959 11.4157 18.3885 10.6829 19.1535C10.0901 19.7723 9.41381 20.1894 8.5 20.5C6.65914 21.1256 4.25348 20.9769 2.63348 20.1373C1.91448 19.7647 1.14744 19.0762 0.747391 18.4444C0.397308 17.8915 0.136612 17.2702 0.0422544 16.5438C0.0152896 16.3361 -4.48227e-05 14.8764 -4.48227e-05 12.5142C-4.48227e-05 8.88061 0.0323812 9.23237 0.113766 8.98172C0.270734 8.49834 0.60272 8.13503 1.06418 7.94175L1.29503 7.84504L9.22145 7.82189L9.18919 4.51301C9.18919 4.31357 9.18196 4.27836 8.96066 3.68826C8.65637 2.87679 7.97498 2.16637 7.1825 1.83428C6.41133 1.51115 5.41657 1.53801 4.66631 1.90219C3.60642 2.41672 2.90524 3.4798 2.82541 4.69338C2.79399 5.17094 2.75478 5.28273 2.55002 5.47854C2.17179 5.84019 1.58549 5.72902 1.36366 5.25367C1.28014 5.07468 1.27468 5.01997 1.29572 4.57435C1.34873 3.45094 1.83219 2.319 2.60961 1.49803C3.6748 0.373172 5.08029 -0.145105 6.57703 0.0350526ZM5.47871 11.5381C4.76067 11.9025 4.61574 12.9157 5.20154 13.4758L5.37728 13.6439L5.29734 14.5622C5.1909 15.784 5.19163 15.8224 5.3231 15.9296C5.41882 16.0078 5.48296 16.016 5.99995 16.016C6.51696 16.016 6.58109 16.0078 6.67681 15.9296C6.80829 15.8224 6.80901 15.7841 6.70254 14.5613L6.62247 13.6421L6.7857 13.4891C7.08268 13.2108 7.21657 12.8041 7.14449 12.3993C7.00266 11.6028 6.18454 11.1798 5.47871 11.5381Z" fill="white"/>
</svg>
