<svg width="34" height="30" viewBox="0 0 34 30" fill="none" xmlns="http://www.w3.org/2000/svg">
<ellipse cx="16.5" cy="9.14111" rx="5.5" ry="5" fill="#DBDBCC"/>
<path fill-rule="evenodd" clip-rule="evenodd" d="M16.5 12.1411C14.3333 14.1411 10 19.0411 10 22.6411C10 27.1411 14.1364 29.1411 16.5 29.1411C18.8636 29.1411 23 27.1411 23 22.6411C23 19.0411 18.6667 14.1411 16.5 12.1411Z" fill="#DBDBCC"/>
<path d="M10.2294 21.0917C10.4467 20.3038 10.806 19.4861 11.2527 18.6738C12.803 18.4265 15.0279 18.1411 16.7201 18.1411C18.1341 18.1411 20.0687 18.3403 21.6789 18.5502C22.1397 19.3714 22.5138 20.2001 22.7448 20.9996C21.3611 20.7391 18.9626 20.3911 16.7201 20.3911C14.1993 20.3911 11.4815 20.8308 10.2294 21.0917Z" fill="#EBEBE3"/>
<path d="M10.45 25.047C10.1923 24.4082 10.032 23.6903 10.0044 22.8903C11.3137 22.64 14.4826 22.1411 16.7201 22.1411C18.5519 22.1411 21.2576 22.4755 22.9995 22.7341C22.9889 23.5644 22.8368 24.3084 22.581 24.9693C21.1771 24.7129 18.8765 24.3911 16.7201 24.3911C14.3385 24.3911 11.781 24.7836 10.45 25.047Z" fill="#EBEBE3"/>
<path d="M21.5727 26.6682C20.1532 28.3577 17.9795 29.1411 16.5001 29.1411C15.0575 29.1411 12.9546 28.3961 11.5347 26.7924C13.0644 26.4779 15.128 26.1411 16.7201 26.1411C18.1031 26.1411 19.9843 26.3953 21.5727 26.6682Z" fill="#EBEBE3"/>
<path fill-rule="evenodd" clip-rule="evenodd" d="M16.296 12.8597C15.0389 11.3943 7.77798 13.8575 5.15003 16.318C1.86509 19.3936 0.94371 24.3658 3.8862 24.4785C7.44371 24.6147 8.82725 26.8296 12.1122 23.7541C14.7401 21.2936 17.4437 14.1147 16.296 12.8597Z" fill="#F6F6F2" fill-opacity="0.8"/>
<path fill-rule="evenodd" clip-rule="evenodd" d="M17.2592 12.8597C18.5162 11.3943 25.7772 13.8575 28.4051 16.318C31.6901 19.3936 32.6115 24.3658 29.669 24.4785C26.1115 24.6147 24.7279 26.8296 21.443 23.7541C18.815 21.2936 16.1115 14.1147 17.2592 12.8597Z" fill="#F6F6F2" fill-opacity="0.8"/>
<path d="M18 4.64096C18.1667 3.14096 19.4 0.340958 23 1.14096" stroke="#DBDBCC" stroke-linecap="round"/>
<path d="M15 4.64096C14.8333 3.14096 13.6 0.340958 10 1.14096" stroke="#DBDBCC" stroke-linecap="round"/>
</svg>
