<svg width="28" height="25" viewBox="0 0 28 25" fill="none" xmlns="http://www.w3.org/2000/svg">
<path d="M27.3417 19.5848L14.3417 24.312C14.121 24.3923 13.879 24.3923 13.6583 24.312L0.658257 19.5848C0.263068 19.4411 0 19.0655 0 18.645V3.65311C0 2.9423 0.720749 2.45843 1.37863 2.72756L13.6214 7.73595C13.864 7.83522 14.136 7.83522 14.3786 7.73595L26.6214 2.72756C27.2793 2.45843 28 2.9423 28 3.65311V18.645C28 19.0655 27.7369 19.4411 27.3417 19.5848Z" fill="#DBDBCC"/>
<path d="M23.8403 16.2079L14.6584 24.242C14.2814 24.5719 13.7185 24.5719 13.3414 24.242L4.15961 16.2079C3.9426 16.018 3.81812 15.7437 3.81812 15.4553V2C3.81812 1.17595 4.75888 0.705573 5.41812 1.2L13.3999 7.18636C13.7555 7.45303 14.2444 7.45303 14.5999 7.18636L22.5818 1.2C23.241 0.705573 24.1818 1.17595 24.1818 2V15.4553C24.1818 15.7437 24.0573 16.018 23.8403 16.2079Z" fill="#F6F6F2"/>
<mask id="mask0_191_2168" style="mask-type:alpha" maskUnits="userSpaceOnUse" x="3" y="0" width="22" height="25">
<path d="M23.8403 16.2079L14.6584 24.242C14.2814 24.5719 13.7185 24.5719 13.3414 24.242L4.15961 16.2079C3.9426 16.018 3.81812 15.7437 3.81812 15.4553V2C3.81812 1.17595 4.75888 0.705573 5.41812 1.2L13.3999 7.18636C13.7555 7.45303 14.2444 7.45303 14.5999 7.18636L22.5818 1.2C23.241 0.705573 24.1818 1.17595 24.1818 2V15.4553C24.1818 15.7437 24.0573 16.018 23.8403 16.2079Z" fill="#FFE999"/>
</mask>
<g mask="url(#mask0_191_2168)">
<rect y="-2.54541" width="14" height="30.5455" fill="#EBEBE3"/>
</g>
</svg>
