<svg width="25" height="30" viewBox="0 0 25 30" fill="none" xmlns="http://www.w3.org/2000/svg">
<path d="M5 11.0254C5.66667 7.85876 7.7 1.42542 10.5 1.02542C14 0.525423 17 7.52542 17.5 11.0254" stroke="#EBEBE3"/>
<path d="M7 11.0254C7.66667 7.85876 9.7 1.42542 12.5 1.02542C16 0.525423 19 7.52542 19.5 11.0254" stroke="#F0F0E9"/>
<path d="M3.29279 10.5254C2.37506 10.5254 1.57342 11.1481 1.37194 12.0435C0.547859 15.7056 -0.462358 21.4446 0.231239 23.5254C0.764713 25.1258 1.32783 26.6669 1.74267 27.7633C2.0321 28.5282 2.76749 29.0254 3.5853 29.0254H20.6459C21.4637 29.0254 22.1991 28.5282 22.4886 27.7633C22.9034 26.6669 23.4665 25.1258 24 23.5254C24.6936 21.4446 23.6834 15.7056 22.8593 12.0435C22.6578 11.1481 21.8562 10.5254 20.9384 10.5254H3.29279Z" fill="#EBEBE3"/>
</svg>