<svg width="30" height="29" viewBox="0 0 30 29" fill="none" xmlns="http://www.w3.org/2000/svg">
<path fill-rule="evenodd" clip-rule="evenodd" d="M14.8995 0.00255201C15.6564 -0.0173769 16.6523 0.0822676 17.0906 0.201841C17.5288 0.341343 18.3455 0.75985 18.8833 1.15843C19.441 1.57693 20.0983 2.21466 20.3772 2.57338C20.6561 2.95203 21.1142 3.80897 21.911 5.66236L22.887 5.58264C23.5244 5.54278 24.3411 5.66236 25.2574 5.96129C26.4127 6.33994 26.8708 6.63887 27.9066 7.63532C28.8229 8.51219 29.281 9.14991 29.5798 9.94707C29.8188 10.5848 29.9981 11.5414 29.9981 12.2389C30.018 12.8965 29.8786 13.9328 29.6794 14.5307C29.4404 15.3279 29.0221 16.0055 28.1257 17.0218C27.1497 18.1378 26.9306 18.5165 27.0103 18.9151C27.07 19.1941 27.2094 19.9514 27.3489 20.609C27.5481 21.6254 27.5281 22.004 27.2692 23.1001C27.0899 23.8176 26.6915 24.7343 26.3928 25.1727C26.094 25.5912 25.5163 26.2489 25.098 26.6076C24.6996 26.9863 23.9826 27.4845 23.5045 27.7236C22.8073 28.1023 22.3492 28.182 20.7756 28.182C19.1422 28.182 18.7438 28.1222 17.9272 27.6838C17.3893 27.4048 16.5727 26.8468 16.1344 26.4283C15.6763 26.0297 15.1783 25.6909 15.0389 25.6909C14.9194 25.6909 14.3816 26.0496 13.8437 26.508C13.3259 26.9464 12.5092 27.5044 12.0112 27.7436C11.4136 28.0425 10.6368 28.2019 9.62091 28.2418C8.4656 28.3016 7.86803 28.2219 7.03143 27.903C6.43386 27.6838 5.5375 27.1656 5.05944 26.7471C4.58138 26.3286 3.92406 25.6112 3.60535 25.1329C3.30656 24.6745 2.90818 23.7379 2.74883 23.0403C2.48988 21.9243 2.48988 21.6453 3.14721 18.377L1.99191 17.1015C1.27482 16.3044 0.677248 15.4076 0.4183 14.73C0.179272 14.0723 0 13.1556 0 12.4382C0 11.7805 0.159352 10.7442 0.358543 10.1464C0.63741 9.30934 1.03579 8.73141 2.03174 7.73496C3.12729 6.63887 3.56551 6.33994 4.64114 5.98122C5.37815 5.72214 6.31434 5.56271 6.83224 5.60257C7.33022 5.6225 7.84811 5.58264 7.96763 5.50293C8.10706 5.42321 8.48552 4.80541 8.80423 4.1079C9.14285 3.43032 9.64083 2.59331 9.95953 2.25452C10.2583 1.91573 10.8758 1.35772 11.314 1.03885C11.7522 0.700063 12.4295 0.321414 12.808 0.22177C13.1864 0.102196 14.1425 0.00255201 14.8995 0.00255201V0.00255201ZM11.0551 10.6446C10.7762 10.9634 10.3778 11.641 10.1587 12.1392C9.89977 12.7172 9.76034 13.4546 9.76034 14.2318C9.76034 15.0887 9.89977 15.7065 10.2384 16.404C10.4973 16.9421 11.0551 17.6795 11.4535 18.0581C11.8718 18.4168 12.549 18.8553 12.9474 19.0346C13.4055 19.2339 14.2421 19.3734 14.9991 19.3734C15.756 19.3734 16.5926 19.2339 17.0308 19.0346C17.4491 18.8553 18.1064 18.4168 18.5247 18.0581C18.9231 17.7193 19.4609 16.962 19.7199 16.424C20.0386 15.7065 20.178 15.0688 20.178 14.1321C20.178 13.0958 20.0784 12.6175 19.6402 11.7606C19.3215 11.1627 18.7638 10.4254 18.3853 10.1464C18.0068 9.84742 17.3296 9.44885 16.8914 9.26949C16.4531 9.09013 15.5568 8.95062 14.8995 8.95062C13.9832 8.95062 13.4454 9.0702 12.6287 9.4887C12.0311 9.80757 11.314 10.3058 11.0551 10.6446V10.6446Z" fill="#FFD600"/>
</svg>
